<?xml version="1.0" encoding="UTF-8"?>
<svg width="20px" height="18px" viewBox="0 0 20 18" version="1.1" xmlns="http://www.w3.org/2000/svg" xmlns:xlink="http://www.w3.org/1999/xlink">
    <!-- Generator: Sketch 47.1 (45422) - http://www.bohemiancoding.com/sketch -->
    <title>喜欢</title>
    <desc>Created with Sketch.</desc>
    <defs></defs>
    <g id="Symbols" stroke="none" stroke-width="1" fill="none" fill-rule="evenodd">
        <g id="喜欢" transform="translate(1.000000, 1.000000)" stroke="#9B9B9B">
            <g id="Oval-10">
                <path d="M9.5,15.1957737 C9.5780681,15.4066399 9.6561362,15.5759515 9.6561362,15.5759515 C9.6561362,15.5759515 18.4304101,9.80605098 18.4304101,4.31114973 C18.4304101,1.49232088 16.1802419,-3.00537645e-08 13.5259949,0 C11.1410957,2.70039675e-08 9.6561362,1.76902882 9.6561362,1.76902882 L9.5,1.31047023"></path>
                <path d="M1.18949722,15.1759304 C1.18949722,15.2521894 5.68434189e-14,15.88365 5.68434189e-14,15.88365 L0.759517758,15.4746094 C0.759517758,15.4746094 9.68992784,9.80605098 9.68992784,4.31114973 C9.68992784,1.49232088 7.43975968,-3.00537645e-08 4.78551267,0 C2.86058525,2.17957543e-08 1.42021708,1.03819011 0.93621785,1.43865832 C0.820563623,1.53435236 0.759517758,1.59363268 0.759517758,1.59363268 L0.759517758,1.20290322" transform="translate(4.844964, 7.941825) scale(-1, 1) translate(-4.844964, -7.941825) "></path>
            </g>
        </g>
    </g>
</svg>