<?xml version="1.0" encoding="UTF-8"?>
<svg width="40px" height="37px" viewBox="0 0 40 37" version="1.1" xmlns="http://www.w3.org/2000/svg" xmlns:xlink="http://www.w3.org/1999/xlink">
    <!-- Generator: Sketch 44.1 (41455) - http://www.bohemiancoding.com/sketch -->
    <title>Tasks</title>
    <desc>Created with Sketch.</desc>
    <defs></defs>
    <g id="Symbols" stroke="none" stroke-width="1" fill="none" fill-rule="evenodd">
        <g id="底部状态栏" transform="translate(-241.000000, -16.000000)">
            <g id="状态栏">
                <g id="Tasks" transform="translate(232.000000, 17.000000)">
                    <path d="M20.0952381,4.19047619 C20.4302757,4.19047619 20.7469466,4.11183872 21.0278003,3.97201409 C21.716972,3.62890611 22.1904762,2.91736852 22.1904762,2.0952381 C22.1904762,0.938070048 21.2524061,0 20.0952381,0 C18.93807,0 18,0.938070048 18,2.0952381 C18,3.25240614 18.93807,4.19047619 20.0952381,4.19047619 Z" id="Oval-3" stroke="#979797"></path>
                    <path d="M24.9142857,2.0952381 L39.4761905,2.0952381" id="Line" stroke="#979797" stroke-linecap="square"></path>
                    <path d="M20.0952381,11.5238095 C20.4302757,11.5238095 20.7469466,11.445172 21.0278003,11.3053474 C21.716972,10.9622394 22.1904762,10.2507019 22.1904762,9.42857143 C22.1904762,8.27140338 21.2524061,7.33333333 20.0952381,7.33333333 C18.93807,7.33333333 18,8.27140338 18,9.42857143 C18,10.5857395 18.93807,11.5238095 20.0952381,11.5238095 Z" id="Oval-3" stroke="#979797"></path>
                    <path d="M24.9142857,9.42857143 L39.4761905,9.42857143" id="Line" stroke="#979797" stroke-linecap="square"></path>
                    <path d="M20.0952381,18.8571429 C20.4302757,18.8571429 20.7469466,18.7785054 21.0278003,18.6386808 C21.716972,18.2955728 22.1904762,17.5840352 22.1904762,16.7619048 C22.1904762,15.6047367 21.2524061,14.6666667 20.0952381,14.6666667 C18.93807,14.6666667 18,15.6047367 18,16.7619048 C18,17.9190728 18.93807,18.8571429 20.0952381,18.8571429 Z" id="Oval-3" stroke="#979797"></path>
                    <path d="M24.9142857,16.7619048 L39.4761905,16.7619048" id="Line" stroke="#979797" stroke-linecap="square"></path>
                    <text id="我的任务" font-family="PingFangSC-Light, PingFang SC" font-size="10" font-weight="300" fill="#979797">
                        <tspan x="8.79888838" y="34.611893">我的任务</tspan>
                    </text>
                </g>
            </g>
        </g>
    </g>
</svg>